



<svg viewBox="0 0 369.68224299065423 81.64205527576544" height="81.64205527576544" width="369.68224299065423" style="width: 369.682px; height: 81.6421px; position: absolute; top: 50%; left: 50%; transform: translate(-50%, -50%) scale(0.876293); z-index: 0; cursor: pointer;"><defs id="SvgjsDefs1087"></defs><g id="SvgjsG1088" featurekey="symbolFeature-0" transform="matrix(2.7602642204649377,0,0,2.7602642204649377,-0.01173125982141685,-3.906469584621541)" fill="#7ac7c4"><g xmlns="http://www.w3.org/2000/svg"><path fill-rule="evenodd" clip-rule="evenodd" fill="#7ac7c4" d="M29.193,5.265c-3.629-3.596-9.432-3.671-13.191-0.288   C12.242,1.594,6.441,1.669,2.81,5.265c-3.741,3.704-3.741,9.709,0,13.415c1.069,1.059,11.053,10.941,11.053,10.941   c1.183,1.172,3.096,1.172,4.278,0c0,0,10.932-10.822,11.053-10.941C32.936,14.974,32.936,8.969,29.193,5.265z M27.768,17.268   L16.715,28.209c-0.393,0.391-1.034,0.391-1.425,0L4.237,17.268c-2.95-2.92-2.95-7.671,0-10.591   c2.844-2.815,7.416-2.914,10.409-0.222l1.356,1.22l1.355-1.22c2.994-2.692,7.566-2.594,10.41,0.222   C30.717,9.596,30.717,14.347,27.768,17.268z"></path><path fill-rule="evenodd" clip-rule="evenodd" fill="#7ac7c4" d="M9.253,7.501c-0.002,0-0.002,0.001-0.004,0.001   c-2.345,0.002-4.246,1.903-4.246,4.249l0,0c0,0.276,0.224,0.5,0.5,0.5s0.5-0.224,0.5-0.5V11.75c0-1.794,1.455-3.249,3.249-3.249   h0.001c0.276,0,0.5-0.224,0.5-0.5S9.53,7.501,9.253,7.501z"></path></g></g><g id="SvgjsG1089" featurekey="nameFeature-0" transform="matrix(1.1892485501504773,0,0,1.1892485501504773,105.85935266643693,-11.0362296303002)" fill="#7ac7c4"><path d="M10.36 14.559999999999999 l0 21.08 l6.76 0 q2.8 0 5.04 -1.44 q2.12 -1.4 3.32 -3.76 t1.2 -5.16 q0 -2.92 -1.14 -5.36 t-3.26 -3.88 q-2.28 -1.48 -5.24 -1.48 l-6.68 0 z M3.72 14.559999999999999 l-1.92 -4.4 l15.2 0 q3.96 0 7.24 2.04 q3.16 1.96 5 5.36 t1.84 7.4 q0 3 -1.18 5.94 t-3.26 5.14 q-2 2.16 -4.28 3.08 q-2.2 0.88 -5.24 0.88 l-11.04 0 l0 -25.44 l-2.36 0 z M42.160000000000004 40 l-4.28 0 l0 -29.84 l4.28 0 l0 29.84 z M60.28 13.32 l-1.64 -3.68 l4.8 0 l14.36 30.36 l-4.88 0 l-1.96 -4.36 l-9.08 0 q-2.56 0 -4.6 0.48 q-1.8 0.44 -3 1.16 q-1.08 0.64 -1.44 1.32 l-0.76 1.4 l-4.72 0 z M63.480000000000004 31.240000000000002 l5.52 0 l-6.52 -12.6 l-6.6 14.28 q0.88 -0.76 2.68 -1.2 q2.04 -0.48 4.92 -0.48 z M108.88 19.48 l-10.2 12.2 l-10.12 -12.2 l0 20.52 l-4.28 0 l0 -25.64 l-3.48 -4.2 l5.64 0 l12.2 14.64 l12.36 -14.64 l5.64 0 l-3.48 4.2 l0 25.64 l-4.28 0 l0 -20.52 z M148.64 24.880000000000003 q0 -3.2 -1.64 -5.8 q-1.56 -2.52 -4.26 -3.96 t-5.86 -1.44 q-3.28 0 -5.98 1.48 t-4.22 4.04 q-1.56 2.68 -1.56 5.96 q0 3.12 1.68 5.76 q1.6 2.48 4.3 3.94 t5.84 1.46 t5.84 -1.52 t4.26 -4.08 q1.6 -2.68 1.6 -5.84 z M152.96 25.119999999999997 q0 4.32 -2.24 7.96 q-2.16 3.48 -5.86 5.54 t-7.98 2.06 q-4.44 0 -8.16 -2.16 q-3.64 -2.08 -5.72 -5.72 q-2.16 -3.72 -2.16 -8.16 q0 -4.28 2.28 -7.88 q2.16 -3.44 5.86 -5.46 t7.94 -2.02 q4.36 0 8.08 2.12 q3.64 2.08 5.76 5.64 q2.2 3.72 2.2 8.08 z M160.64000000000001 14.36 l-3.48 -4.2 l5.64 0 l19.16 22.8 l0 -22.8 l4.4 0 l0 29.84 l-4.32 0 l-17.12 -20.52 l0 20.52 l-4.28 0 l0 -25.64 z M201.12 14.559999999999999 l0 21.08 l6.76 0 q2.8 0 5.04 -1.44 q2.12 -1.4 3.32 -3.76 t1.2 -5.16 q0 -2.92 -1.14 -5.36 t-3.26 -3.88 q-2.28 -1.48 -5.24 -1.48 l-6.68 0 z M194.48000000000002 14.559999999999999 l-1.92 -4.4 l15.2 0 q3.96 0 7.24 2.04 q3.16 1.96 5 5.36 t1.84 7.4 q0 3 -1.18 5.94 t-3.26 5.14 q-2 2.16 -4.28 3.08 q-2.2 0.88 -5.24 0.88 l-11.04 0 l0 -25.44 l-2.36 0 z"></path></g><g id="SvgjsG1090" featurekey="nameFeature-1" transform="matrix(1.0923453233324132,0,0,1.0923453233324132,105.81530883246434,36.86303777464624)" fill="#7ac7c4"><path d="M27.6 30.92 q0 2.92 -1.76 5.2 q-1.72 2.16 -4.74 3.36 t-6.82 1.2 q-3.48 0 -6.76 -1.62 t-5.52 -4.5 l3.12 -2.92 q3.88 4.68 9.16 4.68 q2.32 0 4.24 -0.56 q2.12 -0.64 3.28 -1.8 q1.32 -1.28 1.32 -3.04 q0 -2.12 -1.32 -3.2 q-1.12 -0.92 -3.32 -1.2 q-1.28 -0.16 -4.2 -0.16 q-5.36 0 -8.18 -1.96 t-2.82 -5.76 q0 -2.4 1.42 -4.56 t3.9 -3.44 q2.56 -1.36 5.68 -1.36 q3.52 0 6.36 1.08 q3.04 1.16 5.64 3.64 l-2.72 3.2 q-2.44 -1.96 -4.44 -2.74 t-4.84 -0.78 q-1.64 0 -3.06 0.68 t-2.26 1.82 t-0.84 2.42 q0 3.44 6.36 3.44 q5.08 0 8.04 1.04 q2.8 1 4 3.04 q1.08 1.8 1.08 4.8 z M38.32 26.8 l0 13.2 l-4.32 0 l0 -29.84 l4.32 0 l0 12.24 q1.6 -0.8 3.8 -0.8 q0.8 0 3.88 0.36 q4.32 0.52 5.84 0.52 q2.32 0 4.04 -0.76 l0 -11.56 l4.36 0 l0 29.84 l-4.36 0 l0 -13.88 q-1.72 0.76 -4.04 0.76 q-1.52 0 -5.84 -0.52 q-3.08 -0.36 -3.88 -0.36 q-2.2 0 -3.8 0.8 z M94.84 24.880000000000003 q0 -3.2 -1.64 -5.8 q-1.56 -2.52 -4.26 -3.96 t-5.86 -1.44 q-3.28 0 -5.98 1.48 t-4.22 4.04 q-1.56 2.68 -1.56 5.96 q0 3.12 1.68 5.76 q1.6 2.48 4.3 3.94 t5.84 1.46 t5.84 -1.52 t4.26 -4.08 q1.6 -2.68 1.6 -5.84 z M99.16 25.119999999999997 q0 4.32 -2.24 7.96 q-2.16 3.48 -5.86 5.54 t-7.98 2.06 q-4.44 0 -8.16 -2.16 q-3.64 -2.08 -5.72 -5.72 q-2.16 -3.72 -2.16 -8.16 q0 -4.28 2.28 -7.88 q2.16 -3.44 5.86 -5.46 t7.94 -2.02 q4.36 0 8.08 2.12 q3.64 2.08 5.76 5.64 q2.2 3.72 2.2 8.08 z M116 22.92 l5.28 0 q4.4 0 4.4 -4.24 q0 -2.2 -1.1 -3.18 t-3.3 -0.98 l-10.96 0 l0 9.6 q1.24 -0.72 2.8 -1 q1.16 -0.2 2.88 -0.2 z M110.32000000000001 40 l-4.36 0 l0 -29.84 l15.32 0 q2.64 0 4.6 1.02 t3.04 2.94 t1.08 4.54 t-1.08 4.58 t-3.06 3.02 t-4.58 1.06 l-5.28 0 q-3.44 0 -5.68 1.2 l0 11.48 z M146.44 22.92 l5.28 0 q4.4 0 4.4 -4.24 q0 -2.2 -1.1 -3.18 t-3.3 -0.98 l-10.96 0 l0 9.6 q1.24 -0.72 2.8 -1 q1.16 -0.2 2.88 -0.2 z M140.76 40 l-4.36 0 l0 -29.84 l15.32 0 q2.64 0 4.6 1.02 t3.04 2.94 t1.08 4.54 t-1.08 4.58 t-3.06 3.02 t-4.58 1.06 l-5.28 0 q-3.44 0 -5.68 1.2 l0 11.48 z M171.12 40 l-4.28 0 l0 -29.84 l4.28 0 l0 29.84 z M180.8 14.36 l-3.48 -4.2 l5.64 0 l19.16 22.8 l0 -22.8 l4.4 0 l0 29.84 l-4.32 0 l-17.12 -20.52 l0 20.52 l-4.28 0 l0 -25.64 z M240.88000000000002 14 l-2.8 3.28 q-1.64 -1.68 -3.92 -2.64 t-4.8 -0.96 q-3.28 0 -5.98 1.48 t-4.22 4.04 q-1.56 2.68 -1.56 5.96 q0 3.12 1.68 5.76 q1.6 2.48 4.3 3.94 t5.82 1.46 q2.2 0 4.22 -0.76 t3.62 -2.12 l0 -5.44 l-3.84 0 l-1.88 -4.32 l10.04 0 l0 11.6 q-2.28 2.56 -5.46 3.98 t-6.74 1.42 q-4.44 0 -8.16 -2.16 q-3.64 -2.08 -5.72 -5.72 q-2.16 -3.72 -2.16 -8.16 q0 -4.28 2.28 -7.88 q2.16 -3.44 5.86 -5.46 t7.94 -2.02 q3.32 0 6.32 1.28 q2.92 1.2 5.16 3.44 z"></path></g></svg>